<svg width="53" height="29" viewBox="0 0 53 29" fill="none" xmlns="http://www.w3.org/2000/svg">
<g clip-path="url(#clip0_47_113)">
<path d="M13.8917 28.9955C21.5638 28.9955 27.7833 22.5047 27.7833 14.4978C27.7833 6.49087 21.5638 0 13.8917 0C6.21951 0 0 6.49087 0 14.4978C0 22.5047 6.21951 28.9955 13.8917 28.9955Z" fill="#F09ED6"/>
<path d="M26.502 28.9955C34.1742 28.9955 40.3937 22.5047 40.3937 14.4978C40.3937 6.49087 34.1742 0 26.502 0C18.8299 0 12.6104 6.49087 12.6104 14.4978C12.6104 22.5047 18.8299 28.9955 26.502 28.9955Z" fill="#E93323"/>
<path d="M39.1085 28.9955C46.7806 28.9955 53.0001 22.5047 53.0001 14.4978C53.0001 6.49087 46.7806 0 39.1085 0C31.4363 0 25.2168 6.49087 25.2168 14.4978C25.2168 22.5047 31.4363 28.9955 39.1085 28.9955Z" fill="#103ADA"/>
</g>
<defs>
<clipPath id="clip0_47_113">
<rect width="53" height="29" fill="white"/>
</clipPath>
</defs>
</svg>
